<?xml version="1.0" encoding="utf-8"?>
<svg version="1.1" id="Ebene_1" xmlns="http://www.w3.org/2000/svg" xmlns:xlink="http://www.w3.org/1999/xlink" x="0px" y="0px"
	 viewBox="0 0 399.36 57.93" style="enable-background:new 0 0 399.36 57.93;" xml:space="preserve">
<g>
	<path d="M28.97,1.05c5.92,0,15.01,6.24,15.01,14.61c0,6.71-5.13,10.11-9.4,11.06v0.16c7.5,1.19,15.09,6.4,15.09,14.14
		c0,10.59-7.11,16.12-17.54,16.12c-2.21,0-4.42-0.16-6.56-0.24c-2.13-0.16-4.19-0.24-6.16-0.24H0.85v-1.11
		c0.71,0,1.34-0.16,1.9-0.32c1.58-0.47,4.9-3.48,4.9-4.42V5.95c-0.63-0.71-3-3.48-3.87-3.55L0.85,2.16V1.05H28.97z M5.9,2.16v0.16
		l4.03,3.71V6.9C9.46,6.98,8.75,7.22,8.75,8.32V51.3c0,0.55-0.32,1.19-0.95,1.74L4.95,55.4v0.16h12.64V55.4l-3-2.37
		c-0.63-0.47-1.03-1.11-1.03-2.21V5.56l4.42-3.24V2.16H5.9z M17.36,26.1c0.71,0.16,1.5,0.24,2.45,0.24h4.5
		c6.64,0,9.72-4.66,9.72-10.98c0-7.43-5.13-13.19-11.38-13.19c-2.05,0-5.29,2.84-5.29,4.11V26.1z M17.36,49.87
		c0,5.06,3.48,6.16,7.98,6.16h3.63c6.24,0,10.74-6.95,10.74-13.43c0-6.64-4.66-15.17-12.8-15.17h-9.56V49.87z M28.42,26.49v0.08
		c0.55,0.16,1.03,0.16,1.58,0.16c3.95,0,10.82-4.34,10.82-10.98C40.82,6.74,33.08,2,28.1,2c-0.32,0-0.71,0-1.18,0.08v0.16
		c5.29,2.21,8.22,7.66,8.22,13.43C35.13,20.49,33.15,24.83,28.42,26.49z M33.39,55.72v0.16c6.4-0.32,13.11-6.08,13.11-13.35
		c0-7.19-6-12.88-12.88-14.14l-0.16,0.16c4.5,2.92,7.35,8.53,7.35,14.14C40.82,51.37,34.97,54.77,33.39,55.72z"/>
	<path d="M88.93,57.3c-15.72,0-28.91-12.56-28.91-28.44S73.21,0.42,88.93,0.42c15.72,0,28.91,12.56,28.91,28.44
		S104.65,57.3,88.93,57.3z M75.82,4.77h-0.16c-8.53,4.19-14.54,14.14-14.54,24.09s6,19.91,14.54,24.09h0.16
		c-6.71-6.24-9.8-14.53-9.8-24.09S69.1,11.01,75.82,4.77z M70.29,28.86c0,14.69,4.34,27.33,18.72,27.33
		c14.38,0,18.72-12.64,18.72-27.33c0-13.11-2.92-27.33-18.72-27.33C73.21,1.53,70.29,15.75,70.29,28.86z M100.22,3.82l-0.16,0.16
		c7.19,5.13,8.77,15.32,8.77,24.88c0,10.82-1.98,18.72-8.22,24.41l0.16,0.16c6.95-3.95,13.27-12.17,13.27-24.57
		C114.05,16.54,107.89,6.98,100.22,3.82z"/>
	<path d="M153.87,1.05v1.11c-1.9,0-3.55,0-4.58,0.32c-0.87,0.24-3.48,2.13-3.48,5.13v32.55c0,7.9,8.61,14.46,16.27,14.46
		c10.74,0,17.69-9.08,17.69-21.49V12.75c0-2.21-4.74-8.85-9.08-10.19c-1.03-0.32-3.24-0.4-4.42-0.4V1.05h25.04v1.11
		c-0.79,0-1.97,0.32-3.08,0.71c-3.87,1.34-7.35,8.29-7.35,10.03v20.85c0,14.22-8.61,23.54-22.91,23.54
		c-11.38,0-21.88-8.22-21.88-22.04V6.51c0-1.5-2.53-3.63-4.27-4.11c-0.87-0.24-2.21-0.24-3.24-0.24V1.05H153.87z M133.96,2.16v0.16
		l4.58,3.24v0.79l-1.34,0.63v28.67c0,12.17,9.72,19.59,18.48,20.54v-0.16c-1.58-0.71-3.16-1.42-4.58-2.29
		c-7.5-4.58-9.08-9.72-9.08-15.8V5.56c1.34-1.11,2.69-2.21,4.11-3.24V2.16H133.96z M173.14,2.16v0.16c2.84,1.5,5.53,4.5,7.03,7.82
		h0.16c0.63-3.24,1.82-6,2.84-7.98H173.14z"/>
	<path d="M254.27,1.05c-0.16,2.13-0.24,4.27-0.24,6.32c0,2.92,0.24,5.92,1.03,8.69l-1.34,0.4c-1.82-5.06-12.56-14.22-18.09-14.22
		c-2.45,0-4.9,2.69-4.9,4.66v42.42c0,4.5,4.5,6.24,8.22,6.24v1.11h-26.23v-1.11c3.55,0,8.45-1.82,8.45-6.16V6.58
		c0-1.58-3.16-4.34-5.37-4.34c-4.98,0-14.3,9.56-16.91,13.82l-1.26-0.16c0.79-4.9,0.79-9.87,0.79-14.85H254.27z M199.85,11.56H200
		c1.82-3.71,4.98-6.87,7.58-9.24V2.16h-7.74V11.56z M219.51,2.16v0.16l3.55,3.08v0.87l-0.79,0.63v42.81c0,3.16-2.45,4.74-4.03,5.69
		v0.16h13.51V55.4c-2.69-2.05-4.82-3-4.82-4.98V5.79l3.95-3.48V2.16H219.51z M240.61,2.16v0.16c3.71,1.82,8.45,5.29,11.14,8.45
		l0.16-0.16c-0.63-2.37-1.74-7.27-1.66-8.45H240.61z"/>
	<path d="M292.98,57.3c-15.72,0-28.91-12.56-28.91-28.44s13.19-28.44,28.91-28.44c15.72,0,28.91,12.56,28.91,28.44
		S308.7,57.3,292.98,57.3z M279.87,4.77h-0.16c-8.53,4.19-14.54,14.14-14.54,24.09s6,19.91,14.54,24.09h0.16
		c-6.71-6.24-9.8-14.53-9.8-24.09S273.16,11.01,279.87,4.77z M274.34,28.86c0,14.69,4.34,27.33,18.72,27.33s18.72-12.64,18.72-27.33
		c0-13.11-2.92-27.33-18.72-27.33S274.34,15.75,274.34,28.86z M304.28,3.82l-0.16,0.16c7.19,5.13,8.77,15.32,8.77,24.88
		c0,10.82-1.97,18.72-8.22,24.41l0.16,0.16c6.95-3.95,13.27-12.17,13.27-24.57C318.1,16.54,311.94,6.98,304.28,3.82z"/>
	<path d="M330.27,56.67v-1.11c6.4-0.24,9.56-7.66,9.56-11.61V7.77c0-0.95-4.82-5.06-6.48-5.29c-1.11-0.16-2.13-0.32-3.08-0.32V1.05
		h16.67l40.52,43.05V13.54c0-2.61-4.82-9.16-8.53-10.82c-1.26-0.55-3.24-0.55-4.42-0.55V1.05h23.46v1.11
		c-0.71,0-1.98,0.16-3.08,0.63c-2.29,0.95-6.32,5.85-6.32,10.35v44.79h-1.34L340.94,8.48v34.44c0,4.42,5.13,12.48,8.45,12.56
		l3.95,0.08v1.11H330.27z M342.99,55.56c-0.87-1.66-2.05-4.42-2.69-6.95h-0.16c-0.95,3-3,5.45-5.37,6.79v0.16H342.99z M335.57,2.16
		v0.16c0.95,0.47,2.61,1.82,3.79,3l48.11,51.19v-6.56L344.02,3.42c-0.63-0.63-1.18-1.26-2.05-1.26H335.57z M380.59,2.16v0.16
		c2.61,1.74,5.53,4.66,6.63,7.82h0.16c0.32-2.21,1.19-5.45,3-7.82V2.16H380.59z"/>
</g>
</svg>
